<?xml version="1.0" encoding="utf-8"?>
<!-- Generator: Adobe Illustrator 25.4.1, SVG Export Plug-In . SVG Version: 6.00 Build 0)  -->
<svg version="1.1" id="Capa_1" xmlns="http://www.w3.org/2000/svg" xmlns:xlink="http://www.w3.org/1999/xlink" x="0px" y="0px"
	 viewBox="0 0 160.6 160.6" style="enable-background:new 0 0 160.6 160.6;" xml:space="preserve">
<style type="text/css">
	.st0{fill:#FFFFFF;}
	.st1{fill:#2E3564;}
	.st2{fill:#5998D3;}
</style>
<g id="Capa_2_00000039855496331100941620000012828864883333689278_">
	<rect x="9.1" y="9.1" class="st0" width="142.4" height="142.4"/>
</g>
<g id="Capa_1_00000115506332935494953340000004740944350670190231_">
	<g id="IsoTipo__x28_Color_x29_">
		<g>
			<g id="Isotipo_00000145059982438311267250000000191654001436364719_">
				<path class="st1" d="M50.7,107.3L50.7,107.3c-6.8-1.2-11.4-7.7-10.2-14.5l8.7-49.5c1.2-6.8,7.7-11.4,14.5-10.2l0,0
					c6.8,1.2,11.4,7.7,10.2,14.5l-8.7,49.5C64.1,103.9,57.5,108.4,50.7,107.3z"/>
				<path class="st1" d="M19.5,69.8L19.5,69.8c-6.8-1.2-11.4-7.7-10.2-14.6l2.2-12.4C12.7,36,19.2,31.3,26,32.6l0,0
					c6.8,1.2,11.4,7.8,10.2,14.6L34,59.6C32.9,66.5,26.3,71,19.5,69.8z"/>
				<path class="st1" d="M88.4,107.3L88.4,107.3c-6.8-1.2-11.4-7.7-10.2-14.5l8.7-49.5c1.2-6.8,7.7-11.4,14.5-10.2l0,0
					c6.8,1.2,11.4,7.7,10.2,14.5l-8.7,49.5C101.7,103.9,95.2,108.4,88.4,107.3z"/>
				<path class="st2" d="M150.1,32.8c1,0.1,1.6,1,1.4,2l-12.8,72.6c0,0-4.4,24.7-29.1,20.4c0,0-5.1-0.7-9.9-6.3
					c-0.7-0.9-0.4-2.1,0.6-2.6c3.8-1.7,12-6.3,13.7-15.8c2.2-12.5,8.8-49.7,8.8-49.7S127.1,29.8,150.1,32.8z"/>
			</g>
		</g>
	</g>
</g>
</svg>
