<?xml version="1.0" encoding="utf-8"?>
<!-- Generator: Adobe Illustrator 25.4.1, SVG Export Plug-In . SVG Version: 6.00 Build 0)  -->
<svg version="1.1" id="Capa_1" xmlns="http://www.w3.org/2000/svg" xmlns:xlink="http://www.w3.org/1999/xlink" x="0px" y="0px"
	 viewBox="0 0 160.6 107.9" style="enable-background:new 0 0 160.6 107.9;" xml:space="preserve">
<style type="text/css">
	.st0{display:none;}
	.st1{display:inline;fill:#2E3564;}
	.st2{display:inline;fill:#5998D3;}
	.st3{fill:#FFFFFF;}
</style>
<g id="IsoTipo__x28_Color_x29_">
	<g>
		<g id="Isotipo_00000145059982438311267250000000191654001436364719_" class="st0">
			<path class="st1" d="M46.9,84.3L46.9,84.3c-7.7-1.4-12.9-8.7-11.5-16.4l9.8-55.8c1.4-7.7,8.7-12.9,16.4-11.5l0,0
				C69.4,1.9,74.5,9.3,73.2,17l-9.8,55.8C62,80.5,54.6,85.7,46.9,84.3z"/>
			<path class="st1" d="M11.7,42.1L11.7,42.1C4,40.7-1.1,33.4,0.2,25.7l2.5-14C4,4,11.4-1.1,19.1,0.2l0,0C26.8,1.6,32,8.9,30.6,16.6
				l-2.5,14C26.8,38.3,19.4,43.5,11.7,42.1z"/>
			<path class="st1" d="M89.4,84.3L89.4,84.3c-7.7-1.4-12.9-8.7-11.5-16.4l9.8-55.8c1.4-7.7,8.7-12.9,16.4-11.5l0,0
				c7.7,1.4,12.9,8.7,11.5,16.4l-9.8,55.8C104.4,80.5,97.1,85.7,89.4,84.3z"/>
			<path class="st2" d="M159,0.3c1.1,0.1,1.8,1.1,1.6,2.2l-14.4,81.9c0,0-5,27.9-32.8,23c0,0-5.8-0.8-11.2-7.1
				c-0.8-1-0.5-2.4,0.7-2.9c4.3-1.9,13.5-7.1,15.4-17.8c2.5-14.1,9.9-56,9.9-56S133.1-3,159,0.3z"/>
		</g>
		<g id="Isotipo_00000039827594339521076730000015253365029799999414_">
			<path class="st3" d="M46.9,84.3L46.9,84.3c-7.7-1.4-12.9-8.7-11.5-16.4l9.8-55.8c1.4-7.7,8.7-12.9,16.4-11.5l0,0
				C69.4,1.9,74.5,9.3,73.2,17l-9.8,55.8C62,80.5,54.6,85.7,46.9,84.3z"/>
			<path class="st3" d="M11.7,42.1L11.7,42.1C4,40.7-1.1,33.4,0.2,25.7l2.5-14C4,4,11.4-1.1,19.1,0.2l0,0C26.8,1.6,32,8.9,30.6,16.6
				l-2.5,14C26.8,38.3,19.4,43.5,11.7,42.1z"/>
			<path class="st3" d="M89.4,84.3L89.4,84.3c-7.7-1.4-12.9-8.7-11.5-16.4l9.8-55.8c1.4-7.7,8.7-12.9,16.4-11.5l0,0
				c7.7,1.4,12.9,8.7,11.5,16.4l-9.8,55.8C104.4,80.5,97.1,85.7,89.4,84.3z"/>
			<path class="st3" d="M159,0.3c1.1,0.1,1.8,1.1,1.6,2.2l-14.4,81.9c0,0-5,27.9-32.8,23c0,0-5.8-0.8-11.2-7.1
				c-0.8-1-0.5-2.4,0.7-2.9c4.3-1.9,13.5-7.1,15.4-17.8c2.5-14.1,9.9-56,9.9-56S133.1-3,159,0.3z"/>
		</g>
	</g>
</g>
</svg>
