<?xml version="1.0" encoding="utf-8"?>
<!-- Generator: Adobe Illustrator 25.4.1, SVG Export Plug-In . SVG Version: 6.00 Build 0)  -->
<svg version="1.1" id="Capa_1" xmlns="http://www.w3.org/2000/svg" xmlns:xlink="http://www.w3.org/1999/xlink" x="0px" y="0px"
	 viewBox="0 0 512 512" style="enable-background:new 0 0 512 512;" xml:space="preserve">
<g id="Capa_2_00000088111615392720565370000002271210361523556774_">
</g>
<g id="Capa_3">
	<path d="M180.3,393c0,0,39.4,29.4,111.2,17.9s46.4-62,46.4-62s-41.1,32.8-93.4,28.2S180.3,393,180.3,393"/>
	<path d="M417.9,288c0,0,6.8-17.5,3.6-49.5s-36.7,30.7-36.7,30.7s-4.3,36.9-47,79.7S417.9,288,417.9,288"/>
	<path d="M439.2,235.1c0,0,2.7,20.7-2,48.6c-4.7,28,38.6-16.4,38.6-16.4s1.6-12.5-0.4-30.4C473.4,219,439.2,235.1,439.2,235.1"/>
	<path d="M261.2,360c0,0,106.8,2.3,106.8-112.5s0,0,0,0l-30.7,40.5L261.2,360"/>
</g>
<g id="Solid">
	<path d="M98,252c0,70.7,45.5,130.9,108.8,153h49.5l29.7-29.7c-68.1,14.4-134.9-29.2-149.3-97.3s29.2-134.9,97.3-149.3
		c29.7-6.3,60.8-1.6,87.3,13.3l13.3-13.3c0.3-0.3,0.5-0.5,0.7-0.6l13.9-11.2c-26.4-17.5-57.6-26.9-89.3-26.9
		C170.7,90,98,162.7,98,252L98,252z"/>
	<path d="M376.3,157.5l87.1-108.9l-108.9,87.1L376.3,157.5z"/>
	<path d="M406.9,148c19.8,27.9,31.3,60.9,32.8,95h36c-1.9-45.1-17.8-88.5-45.6-124L406.9,148z"/>
	<path d="M482,98.3l30-30V45h-22.7l-37.8,47.2L482,98.3z"/>
	<path d="M467,22.7V0h-23.3l-30,30l6.1,30.4L467,22.7z"/>
	<path d="M421.4,265.3L273.2,413.4C352.2,406.8,414.8,344.2,421.4,265.3L421.4,265.3z"/>
	<path d="M260,432c-19.1,0-38.1-3-56.2-9h-58l-9,6.2c36.1,25.2,79.2,38.8,123.3,38.8c116.1,0,211.1-92,215.8-207h-36.1
		C435,356.1,356.2,432,260,432L260,432z"/>
	<path d="M415.7,245.6c1.6-1.6,3.8-2.6,6.1-2.7c-1.5-28.7-10.7-56.4-26.6-80.3l-11.2,14c-0.2,0.3-0.5,0.5-0.6,0.7l-13.3,13.3
		c14.8,26.6,19.5,57.6,13.3,87.3L415.7,245.6z"/>
	<path d="M326.6,162.1l14.3-14.3l23.3,23.3l-14.3,14.3L326.6,162.1z"/>
	<path d="M260,198c-29.8,0-53.9,24.2-53.9,54s24.2,53.9,54,53.9s53.9-24.2,53.9-54c0-6.1-1-12.2-3.1-17.9H287c-4.9,0-9-4-9-9v-23.9
		C272.2,199,266.1,198,260,198z M278,261c0,6.4-3.5,12.3-9,15.5v2.5c0,4.9-4,9-9,9s-9-4-9-9c-4.9,0-9-4-9-9c0-4.9,4-9,9-9h9
		c-10,0-18-8-18-18c0-6.4,3.4-12.3,9-15.6V225c0-4.9,4-9,9-9c4.9,0,9,4,9,9c4.9,0,9,4,9,9c0,4.9-4,9-9,9h-9
		C270,243,278,251.1,278,261z"/>
	<path d="M337.2,198l-23.3-23.3l-18,18V216h23.3L337.2,198z"/>
	<path d="M329.4,231.3c-0.1,0.1-0.2,0.2-0.3,0.3c11.2,38.1-10.5,78.2-48.7,89.5c-38.1,11.2-78.2-10.5-89.5-48.7
		c-11.3-38.2,10.5-78.2,48.7-89.5c13.3-3.9,27.4-3.9,40.8,0c0.1-0.1,0.2-0.2,0.3-0.3l27.4-27.4c-53.4-26.6-118.3-4.8-144.9,48.6
		s-4.8,118.3,48.6,144.9c34.2,17,74.8,14.7,106.9-6l32-32c20.7-32,23-72.5,6.1-106.7L329.4,231.3z"/>
	<path d="M137.9,406.6c1.5-1,3.3-1.6,5.1-1.6h22.3c-53-32.8-85.3-90.7-85.3-153c0-99.3,80.7-180,180-180
		c37.3-0.1,73.7,11.4,104,33.1l29.1-23.2C355.1,52.1,308.3,36,260,36C140.9,36,44,132.9,44,252c0,64.1,28.4,124.8,77.7,165.7
		L137.9,406.6z"/>
	<path d="M116.7,413.4c0,0,9.5,10.8,28.5,21.4l62.2-10.7c0,0-22.9-6.8-48-22.9c-25.1-16.2-42.9,10.5-42.9,10.5"/>
</g>
</svg>
