<svg height="481pt" viewBox="-18 0 481 481.99558" width="481pt" xmlns="http://www.w3.org/2000/svg"><path d="m38.046875 258.996094h368.03125c2.074219.058594 4.082031-.734375 5.558594-2.191406 1.480469-1.457032 2.296875-3.457032 2.273437-5.53125v-93.277344h15.433594c3.355469-.046875 6.332031-2.152344 7.492188-5.300782 1.164062-3.144531.269531-6.679687-2.246094-8.898437l-95.195313-82.675781c-3-2.613282-7.46875-2.621094-10.480469-.019532l-16.269531 14.082032-84.328125-73.222656c-3.007812-2.609376-7.472656-2.613282-10.484375-.007813l-84.503906 73.179687-16.171875-14.035156c-3.003906-2.609375-7.472656-2.613281-10.480469-.007812l-95.441406 82.652344c-2.523437 2.21875-3.421875 5.765624-2.265625 8.921874 1.160156 3.15625 4.140625 5.273438 7.503906 5.332032h13.4375v93.277344c.042969 2.109374.925782 4.109374 2.453125 5.5625 1.53125 1.449218 3.578125 2.230468 5.683594 2.160156zm7.863281-101h72v85h-72zm201 85h-47v-50h47zm16 0v-57.832032c.050782-4.4375-3.484375-8.082031-7.917968-8.167968h-63.144532c-4.4375.085937-7.980468 3.726562-7.9375 8.167968v57.832032h-50v-118h176v118zm135 0h-72v-85h72zm-63.765625-165.167969 73.785157 64.167969h-82.019532v-17h22.171875c3.367188-.105469 6.332031-2.25 7.488281-5.417969 1.152344-3.167969.265626-6.71875-2.246093-8.96875l-28.472657-24.726563zm-111.082031-58.777344 103.601562 89.945313h-207.46875zm-111.152344 58.777344 9.199219 7.9375-28.609375 24.75c-2.53125 2.273437-3.425781 5.859375-2.257812 9.058594 1.144531 3.179687 4.121093 5.335937 7.5 5.421875h20.167968v17h-79.980468zm0 0"/><path d="m25.6875 475.375c.765625 4.351562 4.910156 7.261719 9.261719 6.5l65.316406-11.425781c4.351563-.761719 7.261719-4.90625 6.5-9.257813l-1.277344-7.292968 15.238281-12.371094c5.96875-4.96875 13.636719-7.421875 21.382813-6.839844l106.515625 7.789062c.175781.011719.355469.019532.53125.019532 23.726562.082031 46.859375-7.414063 66.027344-21.398438.304687-.226562.59375-.472656.863281-.734375l126.871094-124.226562c3.023437-2.960938 3.21875-7.765625.441406-10.960938-14.636719-16.898437-39.96875-19.3125-57.535156-5.488281l-58.273438 43.574219c-12.113281-14.746094-31.222656-21.835938-50.027343-18.5625l-59.5625 10.417969c-9.492188 1.648437-19.234376 1.140624-28.5-1.484376l-6.664063-1.902343c-34.230469-9.832031-71.109375-2.175781-98.597656 20.46875l-2.511719-14.34375c-.761719-4.351563-4.90625-7.261719-9.257812-6.5l-65.3125 11.429687c-4.351563.761719-7.261719 4.90625-6.5 9.257813zm152.734375-148.25 6.660156 1.898438c11.589844 3.28125 23.769531 3.917968 35.636719 1.859374l59.5625-10.421874c17.066406-2.960938 33.90625 6.304687 40.535156 22.308593l-89.171875 15.601563c-2.835937.472656-5.195312 2.429687-6.191406 5.125-.992187 2.695312-.464844 5.71875 1.386719 7.917968 1.851562 2.195313 4.738281 3.234376 7.5625 2.714844l97.910156-17.132812c4.351562-.761719 7.261719-4.90625 6.5-9.257813-.636719-3.644531-1.65625-7.214843-3.039062-10.648437l59.710937-44.648438c.058594-.042968.109375-.085937.164063-.128906 8.625-6.820312 20.617187-7.453125 29.910156-1.574219l-120.292969 118.035157c-16.128906 11.71875-35.519531 18.09375-55.457031 18.222656h-.300782l-106.242187-8.015625c-11.820313-.9375-23.542969 2.757812-32.691406 10.300781l-8.246094 6.632812-14.871094-85.050781c23.714844-23.929687 58.582031-33.027343 90.964844-23.738281zm-111.113281 1.371094 22.316406 127.574218-49.554688 8.667969-22.316406-127.574219zm0 0"/></svg>