<?xml version="1.0" encoding="utf-8"?>
<!-- Generator: Adobe Illustrator 25.4.1, SVG Export Plug-In . SVG Version: 6.00 Build 0)  -->
<svg version="1.1" id="Capa_1" xmlns="http://www.w3.org/2000/svg" xmlns:xlink="http://www.w3.org/1999/xlink" x="0px" y="0px"
	 viewBox="0 0 496 496" style="enable-background:new 0 0 496 496;" xml:space="preserve">
<path d="M404,119.6c-5.1,0-9.2-4.1-9.2-9.2h-18.4c0,12,7.7,22.1,18.4,25.9v10.9h18.4v-10.9c10.7-3.8,18.4-13.9,18.4-25.9
	c0-15.2-12.4-27.6-27.6-27.6c-5.1,0-9.2-4.1-9.2-9.2s4.1-9.2,9.2-9.2s9.2,4.1,9.2,9.2h18.4c0-12-7.7-22.1-18.4-25.9V36.8h-18.4v10.9
	c-10.7,3.8-18.4,13.9-18.4,25.9c0,15.2,12.4,27.6,27.6,27.6c5.1,0,9.2,4.1,9.2,9.2S409.1,119.6,404,119.6z"/>
<path d="M404,184c50.7,0,92-41.3,92-92S454.7,0,404,0s-92,41.3-92,92S353.3,184,404,184z M404,18.4c40.6,0,73.6,33,73.6,73.6
	s-33,73.6-73.6,73.6s-73.6-33-73.6-73.6S363.4,18.4,404,18.4z"/>
<path d="M480,184h-16v96h-16v-80h-16v80h-16v-56h-16v56h-16v-32h-16v32h-16v-16h-16v16h-16v16h176v-16h-16V184z"/>
<path d="M399,390l-26.1-5.2l-63.1-98.1c-5.9-9.2-16-14.7-26.9-14.7H264v-16h24v-8c0-22.1-17.9-40-40-40h-34.7l-8.6-20
	c-8.8-20.6-21.2-39.2-36.7-55.3v-9c9.8-8.8,16-21.5,16-35.7V72c0-26.5-21.5-48-48-48S88,45.5,88,72v16c0,14.2,6.2,26.9,16,35.7v18.1
	l-14.3,23.8l-26.2-64.4c0.3-1.7,0.5-3.4,0.5-5.2c0-17.6-14.4-32-32-32S0,78.4,0,96c0,12.2,7,22.7,17,28.1l94.3,227.9l-24.9,62.2
	c-5.8-1.7-11.6-3.3-17.4-5.1v0c-2.5-0.8-5.2-1.2-7.8-1.2h-3C43.7,408,32,419.7,32,434.2c0,11.7,7.9,22.1,19.2,25.2l17.7,4.9
	c75.7,21,153.9,31.7,232.5,31.7H376c13.2,0,24-10.8,24-24s-10.8-24-24-24h-52.7c-19.8,0-39.6-0.8-59.3-2.1V360h31.2l39.6,64.4
	c2.9,4.8,8,7.6,13.6,7.6h46.3c11.7,0,21.2-9.5,21.2-21.2C416,400.7,408.8,392,399,390z M270.6,240H157.3l-20.4-47.6
	c-0.6-1.3-0.9-2.7-0.9-4.2v-1.6c0-5.8,4.8-10.6,10.6-10.6c4.6,0,8.6,2.9,10,7.2l13.6,40.8H248C258.4,224,267.3,230.7,270.6,240z
	 M140.8,428.1l24.8-68.1H216v81.1C190.8,437.9,165.7,433.6,140.8,428.1z M125.3,344L35.8,127.6c6.8-0.8,13-3.7,17.8-8.2l85,208.6
	H216v16H125.3z M104,72c0-17.6,14.4-32,32-32s32,14.4,32,32v16c0,17.6-14.4,32-32,32s-32-14.4-32-32V72z M120,146.2v-13
	c5,1.8,10.4,2.8,16,2.8s11-1,16-2.8v6.1l2.3,2.3c15.2,15.2,27.2,32.9,35.7,52.7l5.9,13.7h-14.1l-9.9-29.8
	c-3.6-10.9-13.8-18.2-25.2-18.2c-14.7,0-26.6,11.9-26.6,26.6v1.6c0,3.6,0.7,7.2,2.2,10.5l24.6,57.3H216v56h-66.6L97.3,184.1
	L120,146.2z M32,80c8.8,0,16,7.2,16,16s-7.2,16-16,16s-16-7.2-16-16S23.2,80,32,80z M125.4,360h23.2l-23.5,64.5
	c-7.7-1.9-15.5-3.8-23.2-5.8L125.4,360z M376,464c4.4,0,8,3.6,8,8s-3.6,8-8,8h-74.7c-77.1,0-153.9-10.5-228.2-31.1L55.5,444
	c-4.4-1.2-7.5-5.2-7.5-9.8c0-5.6,4.6-10.2,10.2-10.2h3c1,0,2.1,0.2,3,0.5c84,26.2,171.1,39.5,259.1,39.5H376z M232,443V256h16v188.5
	C242.7,444.1,237.3,443.6,232,443z M264,344v-16h11.5l9.8,16H264z M394.8,416h-46.3l-64-104H264v-24h18.9c5.5,0,10.5,2.8,13.5,7.4
	l66.8,103.8l32.7,6.5c2.4,0.5,4.2,2.6,4.2,5.1C400,413.7,397.7,416,394.8,416z"/>
</svg>
