<?xml version="1.0" encoding="utf-8"?>
<!-- Generator: Adobe Illustrator 25.4.1, SVG Export Plug-In . SVG Version: 6.00 Build 0)  -->
<svg version="1.1" id="Layer_5" xmlns="http://www.w3.org/2000/svg" xmlns:xlink="http://www.w3.org/1999/xlink" x="0px" y="0px"
	 viewBox="0 0 512 512" style="enable-background:new 0 0 512 512;" xml:space="preserve">
<g>
	<path d="M379.9,231.2c4.6,0,8.3,3.7,8.3,8.3h16.5c0-13.7-11.1-24.8-24.8-24.8v-16.5h-16.5v16.5h-24.8v24.8
		c0,13.7,11.1,24.8,24.8,24.8h16.5c4.6,0,8.3,3.7,8.3,8.3v8.3h-24.8c-4.6,0-8.3-3.7-8.3-8.3h-16.5c0,13.7,11.1,24.8,24.8,24.8v16.5
		h16.5v-16.5h24.8v-24.8c0-13.7-11.1-24.8-24.8-24.8h-16.5c-4.6,0-8.3-3.7-8.3-8.3v-8.3H379.9z"/>
	<path d="M371.6,165.2c-50.1,0-90.8,40.8-90.8,90.8s40.8,90.8,90.8,90.8s90.8-40.8,90.8-90.8S421.7,165.2,371.6,165.2z M371.6,330.3
		c-41,0-74.3-33.3-74.3-74.3s33.3-74.3,74.3-74.3s74.3,33.3,74.3,74.3S412.6,330.3,371.6,330.3z"/>
	<path d="M512,286.8v-61.6l-22.6-7.2c-2.1-6.4-4.6-12.6-7.6-18.4l10.8-21L449.1,135l-11.4,5.9v-50c0-22.8-18.5-41.3-41.3-41.3h-59.3
		C333.6,40,324.6,33,313.8,33h-26.9c-7.3-19.7-26-33-47.4-33c-21.4,0-40.2,13.3-47.4,33h-26.9c-10.8,0-19.8,6.9-23.3,16.5H82.6
		c-22.8,0-41.3,18.5-41.3,41.3V225l-28.6,11.9C5,240.2,0,247.6,0,256c0,8.4,5,15.8,12.7,19.1L41.3,287v183.7
		c0,22.8,18.5,41.3,41.3,41.3h313.8c22.8,0,41.3-18.5,41.3-41.3v-99.5l11.4,5.9l43.6-43.5l-10.8-21c3-5.9,5.5-12,7.6-18.4L512,286.8
		z M421.2,90.8v51.8c-3.8-1.6-7.6-3.1-11.5-4.4l-5-15.6V99.1c0-9.1-7.4-16.5-16.5-16.5h-49.5V66.1h57.8
		C410,66.1,421.2,77.2,421.2,90.8z M261.4,199.6c-3,5.9-5.5,12-7.6,18.4l-15.6,5H115.6v-28.9l-24.8,10.3V99.1h51.1
		c3.4,9.6,12.5,16.5,23.3,16.5h148.6c10.8,0,19.8-6.9,23.3-16.5h51.1v16.5h-47.3l-7.2,22.6c-6.4,2.1-12.6,4.6-18.4,7.6l-21-10.8
		l-43.5,43.6L261.4,199.6z M294.1,377l21-10.8c5.9,3,12,5.5,18.4,7.6l7.2,22.6h47.3v66.1H173.4v-82.6H90.8v-72.3l24.8,10.3V289
		h122.6l15.6,5c2.1,6.4,4.6,12.6,7.6,18.4l-10.8,21L294.1,377z M156.9,450.8l-54.4-54.4h54.4V450.8z M156.9,57.8
		c0-4.6,3.7-8.3,8.3-8.3h39.4l1.8-7.2c3.8-15.2,17.4-25.8,33-25.8s29.2,10.6,33,25.8l1.8,7.2h39.4c4.6,0,8.3,3.7,8.3,8.3v33
		c0,4.6-3.7,8.3-8.3,8.3H165.2c-4.6,0-8.3-3.7-8.3-8.3L156.9,57.8z M57.8,90.8c0-13.7,11.1-24.8,24.8-24.8h57.8v16.5H90.8
		c-9.1,0-16.5,7.4-16.5,16.5v112.2l-16.5,6.9V90.8z M16.5,256c0-1.7,1-3.2,2.5-3.8l80-33.3v20.6h132.1v33H99.1v20.6l-80-33.3
		C17.5,259.2,16.5,257.7,16.5,256z M396.4,495.5H82.6c-13.7,0-24.8-11.1-24.8-24.8V293.8l16.5,6.9v90.8l87.4,87.4h226.4
		c9.1,0,16.5-7.4,16.5-16.5v-73l5-15.6c3.9-1.3,7.8-2.8,11.5-4.4v101.3C421.2,484.4,410,495.5,396.4,495.5L396.4,495.5z M476,281
		l-1.2,4.3c-2.3,8.2-5.5,15.9-9.5,23.1l-2.2,3.9l9.3,18.1l-26.5,26.5l-18.1-9.3l-3.9,2.2c-7.2,4-14.9,7.2-23.1,9.5l-4.3,1.2
		l-6.2,19.5h-37.5l-6.2-19.5l-4.3-1.2c-8.2-2.3-15.9-5.5-23.1-9.5l-3.9-2.2l-18.1,9.3l-26.5-26.5l9.3-18.1l-2.2-3.9
		c-4-7.2-7.2-14.9-9.5-23.1l-1.2-4.3l-19.5-6.2v-37.5l19.5-6.2l1.2-4.3c2.3-8.2,5.5-15.9,9.5-23.1l2.2-3.9l-9.3-18.1l26.5-26.5
		l18.1,9.3l3.9-2.2c7.2-4,14.9-7.2,23.1-9.5l4.3-1.2l6.2-19.5h37.5l6.2,19.5l4.3,1.2c8.2,2.3,15.9,5.5,23.1,9.5l3.9,2.2l18.1-9.3
		l26.5,26.5l-9.3,18.1l2.2,3.9c4,7.2,7.2,14.9,9.5,23.1l1.2,4.3l19.5,6.2v37.5L476,281z"/>
	<path d="M107.4,132.1h16.5v16.5h-16.5V132.1z"/>
	<path d="M140.4,132.1h99.1v16.5h-99.1V132.1z"/>
	<path d="M107.4,165.2h132.1v16.5H107.4V165.2z"/>
	<path d="M189.9,429.4h181.7v16.5H189.9V429.4z"/>
	<path d="M189.9,396.4h132.1v16.5H189.9V396.4z"/>
	<path d="M107.4,346.8h123.9v16.5H107.4V346.8z"/>
	<path d="M132.1,313.8h99.1v16.5h-99.1V313.8z"/>
</g>
</svg>
